# xmcd
#
# Track frame offsets:
# 150
# 25920
# 43721
# 61100
# 79631
# 95440
# 114235
# 128649
# 142857
# 161302
# 176013
# 196012
#
# Disc length: 2840 seconds
#
#
# Revision: 0
# Processed by: cddbd v1.5.1PL0 Copyright (c) Steve Scherf et al.
# Submitted via: FreeRIP 2.90 
#
DISCID=880b160c
DTITLE=Los Kjarkas - Antologia Vol. 1
DYEAR=1999
DGENRE=
TTITLE0=Ave de cristal
TTITLE1=Hermanos
TTITLE2=Lunarejo
TTITLE3=Puedo vivir sin tu amor
TTITLE4=Vivir junto a ti
TTITLE5=El ritmo negro
TTITLE6=Jilguero
TTITLE7=El arbol de mi destino
TTITLE8=Jiyajuay Zambita
TTITLE9=Contra el viento
TTITLE10=Ninos de America
TTITLE11=Pequena Aymarita
EXTD=
EXTT0=
EXTT1=
EXTT2=
EXTT3=
EXTT4=
EXTT5=
EXTT6=
EXTT7=
EXTT8=
EXTT9=
EXTT10=
EXTT11=
PLAYORDER=
